<?xml version="1.0" encoding="UTF-8"?>
<svg id="Layer_1" xmlns="http://www.w3.org/2000/svg" xmlns:xlink="http://www.w3.org/1999/xlink" version="1.1" viewBox="0 0 168 50">
  <!-- Generator: Adobe Illustrator 29.0.1, SVG Export Plug-In . SVG Version: 2.1.0 Build 192)  -->
  <defs>
    <style>
      .st0 {
        fill: none;
      }

      .st1 {
        fill: #ffd875;
      }

      .st2 {
        fill: #fff;
      }

      .st3 {
        opacity: .8;
      }

      .st4 {
        opacity: .7;
      }

      .st5 {
        display: none;
        fill: #212121;
        stroke: #000;
        stroke-miterlimit: 10;
      }

      .st6 {
        clip-path: url(#clippath);
      }
    </style>
    <clipPath id="clippath">
      <rect class="st0" width="167.6" height="50"/>
    </clipPath>
  </defs>
  <rect class="st5" width="168" height="50"/>
  <g class="st6">
    <g>
      <path class="st2" d="M64.7,26.6V5.9h8.4c1.5,0,2.8.3,3.9.8,1.1.5,1.9,1.3,2.5,2.2.6,1,.9,2.1.9,3.3s-.3,2.6-1,3.6c-.7,1-1.7,1.8-2.9,2.2l4.5,8.6h-4.8l-4.1-8h-3.1v8h-4.3ZM73,9.6h-4v5.5h4c1,0,1.7-.3,2.2-.8.5-.5.8-1.2.8-1.9s-.3-1.4-.8-2c-.5-.5-1.3-.8-2.2-.8h0Z"/>
      <path class="st2" d="M90.5,26.9c-1.7,0-3.1-.4-4.2-1.1-1.2-.7-2-1.7-2.6-2.8-.6-1.2-.9-2.4-.9-3.8s.3-2.6.9-3.8c.6-1.2,1.5-2.1,2.6-2.8,1.2-.7,2.6-1.1,4.2-1.1s3.1.4,4.2,1.1c1.2.7,2,1.7,2.6,2.8.6,1.2.9,2.4.9,3.8s-.3,2.6-.9,3.8-1.5,2.1-2.6,2.8c-1.2.7-2.6,1.1-4.2,1.1ZM90.5,23.4c.7,0,1.4-.2,1.9-.6.5-.4.9-.9,1.2-1.6.3-.6.4-1.3.4-2.1s-.1-1.5-.4-2.1c-.3-.6-.7-1.1-1.2-1.5-.5-.4-1.1-.6-1.9-.6s-1.4.2-1.9.6c-.5.4-.9.9-1.2,1.5-.3.6-.4,1.3-.4,2.1s.1,1.4.4,2.1c.3.6.7,1.2,1.2,1.6s1.2.6,1.9.6Z"/>
      <path class="st2" d="M101.5,26.6V5.9h8.5c1.7,0,3.1.3,4.2,1,1.1.7,2,1.5,2.5,2.6.6,1.1.9,2.2.9,3.3s-.3,2.3-.9,3.3c-.6,1.1-1.4,1.9-2.5,2.6-1.1.7-2.5,1-4.2,1h-4.2v6.9h-4.3ZM110,9.7h-4.2v6.3h4.2c.7,0,1.3-.2,1.8-.5.5-.3.9-.7,1.1-1.2.3-.5.4-1,.4-1.5s-.1-1-.4-1.5c-.3-.5-.6-.9-1.1-1.2-.5-.3-1.1-.4-1.8-.4Z"/>
      <path class="st2" d="M120.5,26.6V5.4h4.3v8.6h.1c.2-.3.4-.6.7-1,.3-.4.8-.7,1.3-1,.5-.3,1.3-.4,2.1-.4s2.1.3,2.8.8c.7.5,1.3,1.2,1.6,2,.3.8.5,1.7.5,2.6v9.7h-4.3v-8.9c0-.7-.2-1.3-.6-1.9-.4-.5-1-.8-1.8-.8s-1.1.2-1.5.4c-.4.3-.6.7-.8,1.1-.2.5-.3,1-.3,1.5v8.5h-4.3Z"/>
      <path class="st2" d="M139.8,9.8c-.7,0-1.4-.2-1.8-.7-.5-.5-.7-1-.7-1.7s.2-1.3.7-1.7,1.1-.7,1.8-.7,1.3.2,1.8.7c.5.5.7,1.1.7,1.7s-.2,1.2-.7,1.7c-.5.5-1.1.7-1.8.7ZM137.6,26.6v-14.8h4.3v14.8h-4.3Z"/>
      <path class="st2" d="M145.5,26.6v-14.8h4.3v2h.1c.3-.5.8-1.1,1.4-1.6.6-.5,1.5-.7,2.6-.7s2,.3,2.7.8c.7.5,1.2,1.2,1.5,1.9h0c.2-.4.6-.9,1-1.3.4-.4.9-.8,1.5-1,.6-.3,1.3-.4,2.1-.4s1.9.2,2.6.7c.7.5,1.2,1.1,1.5,1.8.3.8.5,1.6.5,2.4v10.2h-4.3v-9.1c0-.7-.2-1.3-.5-1.8-.4-.5-.9-.7-1.6-.7s-1,.1-1.4.4c-.3.3-.6.6-.8,1.1-.2.4-.2.9-.2,1.4v8.8h-4.3v-9.1c0-.7-.2-1.3-.5-1.8-.4-.5-.9-.7-1.6-.7s-1,.1-1.4.4c-.3.3-.6.6-.8,1.1-.2.4-.2.9-.2,1.4v8.8h-4.3,0Z"/>
      <g class="st4">
        <g class="st3">
          <path class="st2" d="M64.7,44.6v-10.1h3.6c.8,0,1.4.2,1.9.5.5.3.9.7,1.2,1.2.3.5.4,1,.4,1.6s-.1,1.1-.4,1.6c-.3.5-.6.9-1.2,1.2s-1.2.5-1.9.5h-2.3v3.5h-1.3ZM68.3,35.7h-2.3v4.3h2.3c.5,0,.9-.1,1.2-.3.3-.2.6-.5.7-.8s.2-.7.2-1,0-.7-.2-1-.4-.6-.7-.8-.7-.3-1.2-.3Z"/>
          <path class="st2" d="M73.5,44.6v-10.4h1.3v4.2h0c0-.1.2-.3.3-.5.2-.2.4-.4.6-.5s.6-.2,1.1-.2,1,.1,1.4.4.7.6.9,1,.3.9.3,1.4v4.7h-1.3v-4.6c0-.5-.1-.9-.4-1.2-.3-.3-.7-.5-1.2-.5s-.7.1-1,.3c-.3.2-.4.5-.6.8-.1.3-.2.7-.2,1.1v4.1h-1.3Z"/>
          <path class="st2" d="M82.2,36c-.2,0-.4,0-.6-.2-.2-.2-.2-.4-.2-.6s0-.4.2-.6c.2-.2.4-.2.6-.2s.4,0,.6.2c.2.2.2.4.2.6s0,.4-.2.6-.4.2-.6.2ZM81.5,44.6v-7.2h1.3v7.2h-1.3Z"/>
          <path class="st2" d="M84.9,44.6v-7.2h1.3v1.1h0c0-.1.2-.3.3-.5.2-.2.4-.4.6-.5.3-.1.6-.2,1-.2s1,.1,1.4.4c.4.3.6.6.8,1h0c.2-.4.5-.7.9-1,.4-.3.8-.4,1.4-.4s1.4.3,1.8.8c.4.5.6,1.2.6,2.1v4.5h-1.3v-4.5c0-.5-.1-1-.4-1.3-.3-.3-.6-.5-1.1-.5s-.8.1-1,.3c-.3.2-.4.5-.5.8-.1.3-.2.7-.2,1v4.1h-1.3v-4.5c0-.5-.1-1-.4-1.3-.3-.3-.6-.5-1.1-.5s-.8.1-1,.3-.4.5-.5.9c-.1.3-.2.7-.2,1v4.1h-1.3Z"/>
          <path class="st2" d="M100.4,44.6v-10.4h1.3v4.2h0c0-.1.2-.3.3-.5s.4-.4.6-.5.6-.2,1.1-.2,1,.1,1.4.4c.4.2.7.6.9,1,.2.4.3.9.3,1.4v4.7h-1.3v-4.6c0-.5-.1-.9-.4-1.2-.3-.3-.7-.5-1.2-.5s-.7.1-1,.3-.4.5-.6.8c-.1.3-.2.7-.2,1.1v4.1h-1.3Z"/>
          <path class="st2" d="M111.4,37.3c.5,0,.8,0,1.1.2.3.1.6.3.8.5.2.2.3.4.4.6h0v-1.1h1.3v7.2h-1.3v-1.1h0c-.1.2-.2.4-.4.6-.2.2-.4.4-.8.5-.3.1-.7.2-1.1.2s-1-.1-1.4-.3c-.4-.2-.8-.5-1-.9-.3-.4-.5-.8-.6-1.2-.1-.4-.2-.9-.2-1.4s0-.9.2-1.4.3-.8.6-1.2c.3-.4.6-.6,1-.9.4-.2.9-.3,1.4-.3ZM111.6,38.4c-.5,0-.9.1-1.2.4s-.6.6-.7,1c-.2.4-.2.8-.2,1.3s0,.9.2,1.3c.2.4.4.7.7,1s.7.4,1.2.4.9-.1,1.2-.4.6-.6.7-1,.2-.8.2-1.3,0-.9-.2-1.3c-.2-.4-.4-.7-.7-1s-.7-.4-1.2-.4Z"/>
          <path class="st2" d="M117.1,47.3c-.2,0-.5,0-.8,0v-1.1c.3,0,.5,0,.7,0,.5,0,1-.1,1.3-.3.3-.2.6-.6.9-1.1l-2.8-7.4h1.4l2.1,5.7,2.1-5.7h1.4l-2.8,7.3c-.4.9-.8,1.6-1.4,2-.6.4-1.3.6-2.1.6Z"/>
          <path class="st2" d="M131.3,44.8c-.6,0-1.1-.1-1.6-.3s-.8-.5-1.1-.9c-.3-.4-.5-.8-.7-1.2-.2-.4-.2-.9-.2-1.4s0-.9.2-1.4c.1-.4.4-.8.7-1.2s.7-.7,1.1-.9,1-.3,1.6-.3,1.1,0,1.4.3.7.4.9.6c.2.3.4.5.5.8s.2.6.3.9h-1.3c0-.3-.2-.5-.3-.7-.1-.2-.3-.4-.6-.5s-.6-.2-1-.2-.9.1-1.3.4-.6.6-.8,1c-.2.4-.3.8-.3,1.3s0,.9.3,1.3c.2.4.4.7.8,1s.8.4,1.3.4.8,0,1-.2.4-.3.6-.5.2-.4.3-.7h1.3c0,.3-.2.6-.3.9s-.3.5-.5.8c-.2.3-.5.5-.9.6s-.9.3-1.4.3Z"/>
          <path class="st2" d="M139.5,37.3c.5,0,.8,0,1.1.2.3.1.6.3.8.5.2.2.3.4.4.6h0v-1.1h1.3v7.2h-1.3v-1.1h0c-.1.2-.2.4-.4.6-.2.2-.4.4-.8.5-.3.1-.7.2-1.1.2s-1-.1-1.4-.3-.8-.5-1-.9c-.3-.4-.5-.8-.6-1.2-.1-.4-.2-.9-.2-1.4s0-.9.2-1.4.3-.8.6-1.2c.3-.4.6-.6,1-.9s.9-.3,1.4-.3ZM139.7,38.4c-.5,0-.9.1-1.2.4s-.6.6-.7,1c-.2.4-.2.8-.2,1.3s0,.9.2,1.3.4.7.7,1,.7.4,1.2.4.9-.1,1.2-.4.6-.6.7-1,.2-.8.2-1.3,0-.9-.2-1.3c-.2-.4-.4-.7-.7-1s-.7-.4-1.2-.4ZM139.4,36.4v-.4c0,0,0-.2,0-.3s.1-.2.2-.2h.2c.4-.3.6-.5.6-.8s0-.2-.1-.3-.2-.2-.5-.2-.3,0-.4.1c0,0-.1.2-.2.3,0,0,0,.2,0,.2h-.9c0-.2,0-.4.2-.7s.3-.4.5-.5c.2-.1.5-.2.9-.2s.9.1,1.1.4c.3.3.4.5.4.9s0,.5-.3.7c-.2.2-.5.4-.8.6h0v.4h-.9Z"/>
          <path class="st2" d="M148.4,44.6v-7.2h1.3v.9h0c.2-.3.4-.5.7-.7.3-.2.7-.3,1.3-.3s.4,0,.6,0v1.2c-.3,0-.5,0-.7,0-.6,0-1.1.2-1.5.5-.3.4-.5.9-.5,1.8v3.8h-1.3Z"/>
          <path class="st2" d="M156.7,44.8c-.8,0-1.4-.2-2-.5-.5-.4-.9-.8-1.2-1.4-.3-.6-.4-1.2-.4-1.8s.1-1.3.4-1.8.7-1,1.2-1.4c.5-.4,1.2-.5,2-.5s1.4.2,2,.5c.5.4.9.8,1.2,1.4s.4,1.2.4,1.8-.1,1.2-.4,1.8c-.3.6-.7,1-1.2,1.4-.5.4-1.2.5-2,.5ZM156.7,43.6c.5,0,.9-.1,1.2-.4.3-.3.6-.6.8-1,.2-.4.3-.8.3-1.3s0-.9-.3-1.3c-.2-.4-.4-.7-.8-1-.3-.3-.7-.4-1.2-.4s-.9.1-1.2.4c-.3.2-.6.6-.8,1-.2.4-.3.8-.3,1.3s0,.9.3,1.3c.2.4.4.7.8,1s.7.4,1.2.4ZM154.4,36.3l1.7-2h1.1l1.7,2h-1.2l-1-1.3-1,1.3h-1.2ZM158.3,34.7v-.4c0,0,0-.2,0-.3s.1-.2.2-.2h.2c.4-.3.6-.5.6-.8s0-.2-.1-.3-.2-.2-.5-.2-.3,0-.4.1c0,0-.1.2-.2.3s0,.2,0,.2h-.9c0-.2,0-.4.2-.7.1-.2.3-.4.5-.5.2-.1.5-.2.9-.2s.9.1,1.1.4c.3.3.4.5.4.9s0,.5-.3.7c-.2.2-.5.4-.8.6h0v.4h-.9Z"/>
        </g>
      </g>
      <path class="st2" d="M23.5,11.1c-2.7-1.7-6.2.2-6.2,3.4v14.7c0,3.2,3.5,5.1,6.2,3.4l11.4-7.4c2.5-1.6,2.5-5.2,0-6.8l-11.4-7.4h0Z"/>
      <path class="st1" d="M49.2,26.6c-2.1,11-11.7,19.3-23.3,19.3S4.6,37.6,2.5,26.6c-1.7.6-2.8,2.5-2.2,4.4,3.7,10.6,13.7,18.1,25.5,18.1s21.8-7.6,25.5-18.1c.6-1.9-.4-3.8-2.2-4.4h0Z"/>
      <path class="st1" d="M13.6,34.9c-.4-.9-.7-1.9-.7-3v-2.6c0-1.6-1.3-2.9-2.9-2.9h-1.4c.8,3.3,2.6,6.2,4.9,8.5Z"/>
      <path class="st1" d="M44.5,26.4c-1.9,8.5-9.5,14.8-18.6,14.8s-16.7-6.3-18.6-14.8h-2.9c2,10.1,10.9,17.7,21.6,17.7s19.6-7.6,21.6-17.7h-2.9Z"/>
      <path class="st1" d="M43,26.5c-.8,0-1.7.3-2.4.8l-16.6,10.7c-1.1.7-2.3,1.1-3.4,1.1,1.7.5,3.4.8,5.3.8,8.3,0,15.2-5.7,17.2-13.4Z"/>
      <path class="st2" d="M47.9,20.1C46.9,8.8,37.4,0,25.9,0S4.9,8.8,3.8,20.1c0,1,.6,1.9,1.6,2,1,0,1.8-.6,1.9-1.6C8.2,11,16.2,3.5,25.9,3.5s17.7,7.4,18.5,16.9c0,1,.9,1.7,1.9,1.6,1,0,1.7-1,1.6-2h0Z"/>
    </g>
  </g>
</svg>